<svg width="640" height="520" viewBox="0 0 640 520" fill="none" xmlns="http://www.w3.org/2000/svg">
  <rect width="640" height="520" rx="40" fill="url(#paint0_linear)"/>
  <circle cx="112" cy="108" r="76" fill="#E9F7F3"/>
  <circle cx="540" cy="112" r="58" fill="#D7E8FF"/>
  <circle cx="546" cy="418" r="84" fill="#FCE9C8"/>
  <path d="M85 414C115 322 185 270 273 270C361 270 431 322 461 414" fill="#FFF8EE"/>
  <rect x="152" y="308" width="320" height="114" rx="28" fill="white" fill-opacity="0.92"/>
  <rect x="198" y="136" width="232" height="182" rx="70" fill="#F6FBFF"/>
  <path d="M244 216C244 174.026 278.026 140 320 140C361.974 140 396 174.026 396 216V238C396 279.974 361.974 314 320 314C278.026 314 244 279.974 244 238V216Z" fill="#F3C7A6"/>
  <path d="M244 218C244 166.19 286.19 124 338 124H350C391.81 124 426 158.19 426 200V214L397 202L370 234L311 204L278 230L244 218Z" fill="#234978"/>
  <path d="M274 286H366C402.451 286 432 315.549 432 352V432H208V352C208 315.549 237.549 286 274 286Z" fill="#FFFFFF"/>
  <path d="M297 286H345V336C345 349.255 334.255 360 321 360C307.745 360 297 349.255 297 336V286Z" fill="#E8B18A"/>
  <path d="M236 320C236 298.909 253.909 281 275 281H364C386.091 281 404 298.909 404 320V432H236V320Z" fill="#F9FDFF"/>
  <rect x="280" y="300" width="78" height="118" rx="24" fill="#EEF6FB"/>
  <path d="M220 200C220 182.327 234.327 168 252 168H265V432H220V200Z" fill="#5B7FA8" fill-opacity="0.2"/>
  <circle cx="321" cy="336" r="17" fill="#2C7D7B"/>
  <path d="M298 286C307.676 298.653 320.905 305 337.688 305C354.471 305 366.909 298.653 375 286" stroke="#D59F83" stroke-width="8" stroke-linecap="round"/>
  <path d="M302 170C319 198 359 218 402 218" stroke="#17385F" stroke-width="10" stroke-linecap="round"/>
  <path d="M332 364C332 353.507 340.507 345 351 345H404C414.493 345 423 353.507 423 364V432H332V364Z" fill="#EAF6FF"/>
  <path d="M351 345C358.18 363.66 375.18 372.99 402 373" stroke="#C6DDF5" stroke-width="8" stroke-linecap="round"/>
  <circle cx="148" cy="270" r="56" fill="#B57B5D"/>
  <path d="M64 430C64 361.516 119.516 306 188 306H194C262.484 306 318 361.516 318 430V432H64V430Z" fill="#8D5F46"/>
  <path d="M126 244C126 215.833 148.833 193 177 193C205.167 193 228 215.833 228 244V265C228 293.167 205.167 316 177 316C148.833 316 126 293.167 126 265V244Z" fill="#D7A17C"/>
  <path d="M122 248C122 217.072 147.072 192 178 192H187C214.614 192 237 214.386 237 242V252L206 237L182 260L153 245L122 248Z" fill="#5D3F31"/>
  <rect x="170" y="338" width="118" height="18" rx="9" fill="#CBE1F3"/>
  <rect x="194" y="365" width="154" height="18" rx="9" fill="#D9ECFA"/>
  <rect x="182" y="392" width="136" height="18" rx="9" fill="#E7F2FB"/>
  <path d="M462 116L480 102L504 128" stroke="#2C7D7B" stroke-width="16" stroke-linecap="round" stroke-linejoin="round"/>
  <defs>
    <linearGradient id="paint0_linear" x1="40" y1="20" x2="590" y2="500" gradientUnits="userSpaceOnUse">
      <stop stop-color="#F6FBFF"/>
      <stop offset="0.45" stop-color="#EEF6FF"/>
      <stop offset="1" stop-color="#FFF7EA"/>
    </linearGradient>
  </defs>
</svg>
